<svg width="111" height="27" viewBox="0 0 111 27" fill="none" xmlns="http://www.w3.org/2000/svg">
<path d="M32.9977 11V2.6H34.1737V11H32.9977ZM39.2438 11V2.6H40.4558L45.2078 9.032V2.6H46.3958V11H45.2078L40.4198 4.508V11H39.2438ZM51.4664 11V2.6H56.5544V3.68H52.6424V6.32H56.0504V7.4H52.6424V11H51.4664ZM60.9469 11V2.6H62.1229V11H60.9469ZM67.193 11V2.6H68.405L73.157 9.032V2.6H74.345V11H73.157L68.369 4.508V11H67.193ZM79.4157 11V2.6H80.5917V11H79.4157ZM87.3658 11V3.68H84.7378V2.6H91.1818V3.68H88.5538V11H87.3658ZM98.522 7.508L97.454 7.1L100.178 2.6H101.546L98.522 7.508ZM97.358 11V6.968H98.546V11H97.358ZM97.382 7.508L94.358 2.6H95.714L98.438 7.1L97.382 7.508ZM32.78 24.144C32.332 24.144 31.924 24.092 31.556 23.988C31.196 23.884 30.88 23.744 30.608 23.568C30.344 23.384 30.124 23.18 29.948 22.956C29.772 22.732 29.648 22.496 29.576 22.248L30.716 21.876C30.836 22.204 31.064 22.488 31.4 22.728C31.736 22.968 32.148 23.092 32.636 23.1C33.228 23.1 33.692 22.984 34.028 22.752C34.372 22.512 34.544 22.196 34.544 21.804C34.544 21.444 34.396 21.152 34.1 20.928C33.804 20.696 33.412 20.52 32.924 20.4L31.952 20.148C31.568 20.044 31.216 19.896 30.896 19.704C30.584 19.512 30.336 19.268 30.152 18.972C29.968 18.676 29.876 18.32 29.876 17.904C29.876 17.136 30.124 16.536 30.62 16.104C31.124 15.672 31.848 15.456 32.792 15.456C33.336 15.456 33.808 15.544 34.208 15.72C34.608 15.888 34.936 16.112 35.192 16.392C35.456 16.672 35.644 16.98 35.756 17.316L34.616 17.7C34.48 17.34 34.248 17.052 33.92 16.836C33.592 16.612 33.188 16.5 32.708 16.5C32.204 16.5 31.804 16.62 31.508 16.86C31.22 17.1 31.076 17.428 31.076 17.844C31.076 18.196 31.188 18.468 31.412 18.66C31.644 18.844 31.952 18.984 32.336 19.08L33.308 19.32C34.092 19.512 34.696 19.832 35.12 20.28C35.552 20.72 35.768 21.204 35.768 21.732C35.768 22.188 35.652 22.6 35.42 22.968C35.196 23.328 34.86 23.616 34.412 23.832C33.972 24.04 33.428 24.144 32.78 24.144ZM42.0493 24V16.68H39.4213V15.6H45.8653V16.68H43.2373V24H42.0493ZM53.6376 24.144C52.8216 24.144 52.0976 23.96 51.4656 23.592C50.8336 23.224 50.3376 22.712 49.9776 22.056C49.6256 21.4 49.4496 20.648 49.4496 19.8C49.4496 18.952 49.6256 18.204 49.9776 17.556C50.3376 16.9 50.8296 16.388 51.4536 16.02C52.0776 15.644 52.7976 15.456 53.6136 15.456C54.4296 15.456 55.1496 15.644 55.7736 16.02C56.3976 16.388 56.8856 16.9 57.2376 17.556C57.5896 18.204 57.7656 18.952 57.7656 19.8C57.7656 20.648 57.5896 21.4 57.2376 22.056C56.8856 22.712 56.3976 23.224 55.7736 23.592C55.1576 23.96 54.4456 24.144 53.6376 24.144ZM53.6376 23.064C54.2136 23.064 54.7216 22.924 55.1616 22.644C55.6016 22.364 55.9456 21.98 56.1936 21.492C56.4416 21.004 56.5656 20.44 56.5656 19.8C56.5656 19.168 56.4376 18.608 56.1816 18.12C55.9336 17.624 55.5856 17.236 55.1376 16.956C54.6976 16.676 54.1896 16.536 53.6136 16.536C53.0376 16.536 52.5256 16.676 52.0776 16.956C51.6296 17.236 51.2776 17.624 51.0216 18.12C50.7736 18.608 50.6496 19.168 50.6496 19.8C50.6496 20.44 50.7776 21.004 51.0336 21.492C51.2896 21.98 51.6416 22.364 52.0896 22.644C52.5456 22.924 53.0616 23.064 53.6376 23.064ZM62.2828 24V15.6H65.1148C65.6748 15.6 66.1668 15.712 66.5908 15.936C67.0228 16.152 67.3588 16.456 67.5988 16.848C67.8468 17.232 67.9708 17.68 67.9708 18.192C67.9708 18.696 67.8388 19.144 67.5748 19.536C67.3188 19.928 66.9668 20.236 66.5188 20.46C66.0708 20.676 65.5668 20.784 65.0068 20.784H63.4588V24H62.2828ZM66.9748 24L64.9828 20.568L65.9188 19.944L68.3068 24H66.9748ZM63.4588 19.704H65.2228C65.5108 19.704 65.7668 19.64 65.9908 19.512C66.2228 19.376 66.4068 19.196 66.5428 18.972C66.6868 18.74 66.7588 18.48 66.7588 18.192C66.7588 17.744 66.6028 17.38 66.2908 17.1C65.9788 16.82 65.5748 16.68 65.0788 16.68H63.4588V19.704ZM78.5908 24L75.2668 15.6H76.4668L79.8508 24H78.5908ZM71.8228 24L75.2068 15.6H76.4068L73.0828 24H71.8228ZM73.4188 21.756V20.7H78.2548V21.756H73.4188ZM87.7668 24.144C86.9188 24.144 86.1628 23.96 85.4988 23.592C84.8428 23.216 84.3268 22.704 83.9508 22.056C83.5828 21.4 83.3988 20.652 83.3988 19.812C83.3988 18.956 83.5828 18.204 83.9508 17.556C84.3268 16.9 84.8428 16.388 85.4988 16.02C86.1628 15.644 86.9188 15.456 87.7668 15.456C88.2308 15.456 88.6748 15.532 89.0988 15.684C89.5308 15.828 89.9188 16.032 90.2628 16.296C90.6148 16.552 90.8988 16.848 91.1148 17.184L90.1668 17.808C90.0068 17.56 89.7988 17.34 89.5428 17.148C89.2868 16.956 89.0028 16.808 88.6908 16.704C88.3868 16.592 88.0788 16.536 87.7668 16.536C87.1508 16.536 86.6028 16.676 86.1228 16.956C85.6508 17.236 85.2788 17.62 85.0068 18.108C84.7348 18.596 84.5988 19.164 84.5988 19.812C84.5988 20.444 84.7308 21.004 84.9948 21.492C85.2668 21.98 85.6428 22.364 86.1228 22.644C86.6108 22.924 87.1668 23.064 87.7908 23.064C88.2948 23.064 88.7428 22.96 89.1348 22.752C89.5348 22.544 89.8468 22.252 90.0708 21.876C90.3028 21.5 90.4188 21.064 90.4188 20.568L91.5588 20.46C91.5588 21.204 91.3948 21.852 91.0668 22.404C90.7468 22.956 90.3028 23.384 89.7348 23.688C89.1668 23.992 88.5108 24.144 87.7668 24.144ZM88.3788 20.64V19.656H91.5588V20.52L90.9588 20.64H88.3788ZM95.9508 24V15.6H101.003V16.68H97.1268V19.176H100.619V20.232H97.1268V22.92H101.027V24H95.9508Z" fill="white"/>
<rect x="0.625" y="1.625" width="22.75" height="22.75" rx="5.375" stroke="white" stroke-width="1.25"/>
<rect x="3.525" y="4.525" width="16.95" height="16.95" rx="3.475" stroke="white" stroke-width="1.05"/>
<rect x="6.45" y="7.45" width="11.1" height="11.1" rx="1.55" stroke="white" stroke-width="0.9"/>
</svg>
